<svg width="24" height="24" viewBox="0 0 24 24" fill="none" xmlns="http://www.w3.org/2000/svg">
<path d="M19.1566 5.13907C19.444 4.84075 19.4351 4.36596 19.1368 4.0786C18.8384 3.79123 18.3637 3.80011 18.0763 4.09844L11.7288 10.688L5.13919 4.34047C4.84087 4.05311 4.36608 4.06199 4.07871 4.36031C3.79135 4.65864 3.80023 5.13343 4.09855 5.42079L10.6881 11.7683L4.34061 18.3579C4.05325 18.6562 4.06213 19.131 4.36046 19.4183C4.65878 19.7057 5.13357 19.6968 5.42093 19.3985L11.7684 12.809L18.358 19.1565C18.6563 19.4438 19.1311 19.4349 19.4185 19.1366C19.7058 18.8383 19.6969 18.3635 19.3986 18.0761L12.8091 11.7286L19.1566 5.13907Z" fill="#404040"/>
</svg>
